<svg version="1.1" id="Layer_1" xmlns="http://www.w3.org/2000/svg" xmlns:xlink="http://www.w3.org/1999/xlink" x="0px" y="0px"
	 width="100%" viewBox="0 0 316 298" enable-background="new 0 0 316 298" xml:space="preserve">
<path fill="#FEFEFE" opacity="1.000000" stroke="none" 
	d="
M184.000000,299.000000 
	C122.666695,299.000000 61.833393,299.000000 1.000065,299.000000 
	C1.000044,199.666748 1.000044,100.333488 1.000022,1.000172 
	C106.333214,1.000115 211.666428,1.000115 316.999725,1.000057 
	C316.999817,100.333160 316.999817,199.666321 316.999908,298.999756 
	C272.833344,299.000000 228.666672,299.000000 184.000000,299.000000 
M271.691101,225.686295 
	C271.691101,225.686295 271.703949,225.616974 272.408051,225.710464 
	C272.759766,224.992279 273.111450,224.274078 273.583130,223.169907 
	C273.583130,223.169907 273.796448,222.826630 274.361969,222.833939 
	C274.612396,222.226028 274.862823,221.618103 275.276062,220.416290 
	C275.402710,220.026077 275.529388,219.635864 276.252533,218.922699 
	C278.375458,215.728165 278.948334,212.625427 275.512024,209.162933 
	C275.387360,208.770416 275.262695,208.377884 275.580322,207.657425 
	C274.981995,207.164642 274.383636,206.671875 273.465057,205.659683 
	C272.647797,204.767151 271.830566,203.874619 271.009949,202.269470 
	C269.855316,201.695648 268.700714,201.121811 267.039978,200.353058 
	C266.705170,200.216583 266.370392,200.080109 265.925812,199.255356 
	C263.823059,198.312683 261.720337,197.370010 259.084381,196.300125 
	C258.751526,196.152634 258.418640,196.005157 258.023376,195.166000 
	C257.259186,194.866318 256.495026,194.566620 255.119400,194.049454 
	C253.766129,193.004440 252.412842,191.959427 251.006104,190.217697 
	C249.888443,189.597122 248.770767,188.976547 247.150223,188.128860 
	C246.782669,187.730698 246.415100,187.332550 246.044342,186.294159 
	C245.362244,185.863235 244.680145,185.432312 243.477478,184.598450 
	C241.804993,182.875931 240.132492,181.153397 238.747940,178.745087 
	C237.406204,177.250610 236.064453,175.756119 234.437408,173.898117 
	C234.437408,173.898117 234.297638,173.457672 234.609177,172.767471 
	C233.218567,170.514069 231.827942,168.260681 230.361801,165.226501 
	C230.477112,164.721390 230.592422,164.216263 231.422318,163.768494 
	C235.102020,161.403076 238.906082,159.205673 242.414658,156.609039 
	C244.511154,155.057465 246.144638,152.880295 248.000000,151.000000 
	C248.000000,151.000000 247.984421,150.985962 248.685547,151.062790 
	C254.622498,146.420898 256.991638,140.139832 256.527710,132.842941 
	C256.399658,130.828445 254.960754,128.897308 253.943436,126.396057 
	C253.855545,126.032448 253.767639,125.668839 253.918304,124.604233 
	C252.607117,123.073891 251.295929,121.543541 250.000000,120.000000 
	C250.000000,120.000000 249.986237,120.015221 250.034821,119.347969 
	C249.341827,118.909859 248.648819,118.471741 247.475571,117.760597 
	C247.003418,117.476692 246.531281,117.192787 246.036942,116.212532 
	C243.696732,115.399277 241.356537,114.586029 238.126923,113.720665 
	C234.389236,113.720665 230.651550,113.720665 226.168365,113.720665 
	C226.168365,107.810287 226.168365,102.397057 226.682999,96.441895 
	C225.977005,93.551682 225.270996,90.661469 224.420624,87.081627 
	C224.357193,86.380074 224.293777,85.678513 224.693542,84.541992 
	C223.990433,82.949951 223.287323,81.357910 222.404663,79.181496 
	C222.328201,78.781349 222.251740,78.381195 222.650711,77.539024 
	C220.056732,73.060158 217.462753,68.581291 214.582825,63.575481 
	C213.965317,62.805271 213.347809,62.035061 212.916260,60.552776 
	C211.510666,59.162495 210.105072,57.772217 208.682800,56.311684 
	C208.682800,56.311684 208.616623,56.282825 208.768616,55.599552 
	C208.085022,55.185467 207.401413,54.771385 206.703339,54.292900 
	C206.703339,54.292900 206.638916,54.278423 206.759308,53.588764 
	C206.060181,53.217819 205.361069,52.846870 204.606003,52.390354 
	C204.606003,52.390354 204.520203,52.334797 204.702835,51.649002 
	C203.002151,50.586567 201.301453,49.524132 199.087830,48.134975 
	C198.451843,47.637939 197.815857,47.140903 197.089417,45.977684 
	C192.392944,43.651821 187.696472,41.325962 182.386688,38.912781 
	C181.989456,38.802273 181.592224,38.691765 181.097473,37.957851 
	C179.732132,37.630909 178.366776,37.303963 176.377655,36.934441 
	C175.968750,36.855846 175.559830,36.777252 174.974228,36.058666 
	C172.983307,35.697853 170.992401,35.337036 168.227417,34.951260 
	C167.198639,34.874630 166.169861,34.798000 164.842789,34.010075 
	C160.108810,33.683102 155.375107,33.132145 150.640762,33.126644 
	C148.380753,33.124020 146.119537,34.157307 143.092743,34.834572 
	C142.061127,34.881824 141.029526,34.929073 139.540298,34.500839 
	C137.643112,35.233463 135.745926,35.966084 133.240662,36.844460 
	C132.826447,36.888683 132.412216,36.932907 131.617966,36.507881 
	C130.346420,37.199142 129.074890,37.890404 127.217522,38.781296 
	C126.811684,38.854229 126.405838,38.927162 125.602379,38.520111 
	C121.163788,41.119034 116.725197,43.717957 111.789207,46.656666 
	C110.976532,47.234318 110.163857,47.811970 108.643814,48.165108 
	C107.241714,49.552753 105.839615,50.940403 104.357864,52.370388 
	C104.357864,52.370388 104.315178,52.449852 103.637230,52.271313 
	C103.201775,52.936565 102.766312,53.601818 102.264023,54.271259 
	C102.264023,54.271259 102.265900,54.338196 101.575752,54.233082 
	C101.179619,54.919193 100.783493,55.605305 100.320930,56.326851 
	C100.320930,56.326851 100.302177,56.399776 99.611397,56.286823 
	C98.497696,57.948040 97.383987,59.609261 95.983994,61.797817 
	C95.363136,62.563988 94.742279,63.330158 93.431808,64.175995 
	C91.216988,68.778419 89.002174,73.380844 86.699516,78.586365 
	C86.593704,78.978157 86.487892,79.369942 85.818039,79.980782 
	C85.515190,81.317741 85.212341,82.654701 84.794868,84.745964 
	C84.664459,85.753532 84.534050,86.761101 83.812149,88.104485 
	C83.496941,91.066505 83.181740,94.028526 82.837364,97.925606 
	C82.837364,103.148849 82.837364,108.372086 82.837364,113.886444 
	C80.172127,113.670387 78.697395,113.550842 77.005577,112.932976 
	C75.927147,113.092659 74.848724,113.252342 72.978714,113.529419 
	C71.648323,113.644020 70.317924,113.758629 68.563744,113.378273 
	C66.444267,114.663971 64.324799,115.949669 61.819469,117.515877 
	C61.543335,117.673546 61.268761,117.833893 60.327602,117.951324 
	C59.876083,118.622307 59.424561,119.293289 58.684578,120.505112 
	C58.050514,121.295883 57.416454,122.086662 56.077053,122.945175 
	C55.009167,125.121483 53.577190,127.196594 52.939072,129.492355 
	C50.682640,137.610382 54.582016,147.684326 61.000000,151.000000 
	C61.000000,151.000000 61.005676,150.993561 60.946434,151.690201 
	C65.416008,154.670929 69.885590,157.651657 74.713142,160.752029 
	C74.713142,160.752029 75.019485,160.972534 75.060867,161.663025 
	C76.138451,162.348648 77.216034,163.034256 78.565216,164.449539 
	C78.557022,164.966568 78.548828,165.483612 77.847710,166.264038 
	C76.791855,168.667236 75.736000,171.070450 74.520004,173.882111 
	C74.520004,173.882111 74.217682,174.200043 73.512482,174.168381 
	C72.487816,175.911331 71.463150,177.654266 70.120972,179.840652 
	C69.718643,180.208481 69.316307,180.576309 68.271797,180.976349 
	C67.842934,181.644470 67.414078,182.312592 66.701973,183.550400 
	C65.602943,184.524643 64.503906,185.498886 62.732201,186.273819 
	C62.261894,186.941284 61.791584,187.608749 61.250957,188.247208 
	C61.250957,188.247208 61.243690,188.322922 60.592434,188.118103 
	C59.686462,189.006577 58.780487,189.895065 57.469429,191.245636 
	C56.783985,191.665817 56.098537,192.085999 54.760853,192.274490 
	C53.805580,193.124435 52.850307,193.974396 51.644699,195.115723 
	C51.644699,195.115723 51.324844,195.328491 50.620457,195.193466 
	C49.399208,196.105911 48.177959,197.018341 46.453770,198.153458 
	C46.105225,198.266953 45.756680,198.380447 44.763744,198.247269 
	C44.170341,198.822906 43.576939,199.398544 42.469616,200.169373 
	C42.129436,200.305740 41.789261,200.442093 40.781883,200.348007 
	C39.850147,201.226028 38.918411,202.104050 37.639801,203.485519 
	C36.824219,204.378326 36.008640,205.271149 34.622318,206.109451 
	C34.356976,206.734497 34.091633,207.359528 33.649868,208.575317 
	C33.527744,208.967621 33.405621,209.359924 32.690445,210.080368 
	C30.653690,213.297638 29.951733,216.420074 33.555122,219.828018 
	C33.664738,220.222702 33.774353,220.617386 33.430191,221.315948 
	C34.015625,221.827118 34.601059,222.338287 35.403805,223.189758 
	C35.403805,223.189758 35.527454,223.574127 35.317993,224.255112 
	C35.982414,224.702942 36.646835,225.150772 37.336430,225.671997 
	C37.336430,225.671997 37.408131,225.701614 37.273552,226.402878 
	C37.983757,226.792023 38.693966,227.181168 39.955818,227.869659 
	C40.960098,228.596085 41.964382,229.322510 43.083660,230.737411 
	C43.854290,231.008392 44.624920,231.279388 45.930439,231.676682 
	C46.271446,231.809021 46.612453,231.941376 47.052109,232.783096 
	C49.518253,233.666626 51.984394,234.550156 54.972012,235.511398 
	C55.310448,235.605225 55.648884,235.699036 56.373505,236.435318 
	C57.724712,236.785568 59.075920,237.135818 60.966423,237.594666 
	C61.295139,237.751663 61.623852,237.908661 61.902538,238.796234 
	C63.188690,240.910599 64.474838,243.024963 66.258209,245.562088 
	C67.569443,246.969254 68.880669,248.376434 70.215729,250.472687 
	C72.472359,251.379028 74.728981,252.285355 77.744080,253.263290 
	C78.752029,253.376205 79.759979,253.489105 81.145966,254.197861 
	C86.759636,254.527084 92.373314,254.856308 98.690170,255.240753 
	C99.389183,255.332474 100.088188,255.424179 101.056946,256.076172 
	C102.702225,256.410919 104.347496,256.745667 106.597046,257.188293 
	C106.986389,257.312531 107.375732,257.436768 107.927986,258.237915 
	C109.096352,258.643188 110.264709,259.048462 111.826401,259.570129 
	C111.826401,259.570129 112.153336,259.817871 112.175217,260.541351 
	C112.945129,260.799103 113.715034,261.056824 115.104599,261.531555 
	C116.014336,262.129669 116.924072,262.727783 117.956566,264.014496 
	C119.122559,264.469513 120.288551,264.924530 121.881096,265.484894 
	C121.881096,265.484894 122.239670,265.738800 122.181374,266.417358 
	C124.123581,267.246765 126.065788,268.076202 128.621094,269.032013 
	C129.024963,269.136108 129.428833,269.240234 129.955490,269.959686 
	C131.303314,270.311859 132.651138,270.664032 134.620087,271.069824 
	C135.026031,271.156311 135.431961,271.242798 136.002792,271.976288 
	C138.000854,272.336029 139.998932,272.695770 142.769943,273.060669 
	C143.795715,273.142792 144.821472,273.224915 146.139099,274.026611 
	C152.138794,273.774933 158.138474,273.523254 164.849213,273.161652 
	C165.567688,273.126038 166.286148,273.090393 167.465591,273.530182 
	C169.368759,272.807251 171.271912,272.084351 173.772598,271.192871 
	C174.182571,271.137939 174.592545,271.083008 175.380890,271.496429 
	C176.644638,270.782166 177.908386,270.067902 179.769577,269.170715 
	C180.176666,269.082520 180.583755,268.994324 181.352097,269.396057 
	C183.156509,268.176025 184.960938,266.955963 187.129028,265.480774 
	C187.129028,265.480774 187.560501,265.375031 188.181335,265.694153 
	C189.179535,264.913269 190.177750,264.132385 191.764267,263.052612 
	C192.686401,262.470459 193.608536,261.888275 195.174759,261.630920 
	C195.735611,261.028503 196.296448,260.426056 197.188553,259.579620 
	C197.188553,259.579620 197.583954,259.465851 198.229401,259.769989 
	C199.232422,259.033264 200.235443,258.296539 201.812180,257.343781 
	C202.210968,257.255829 202.609741,257.167877 203.357147,257.562195 
	C204.651138,256.904877 205.945114,256.247528 207.985275,255.441940 
	C208.996063,255.356049 210.006866,255.270157 211.647064,255.696198 
	C217.172760,254.981888 222.698441,254.267563 228.979187,253.446579 
	C229.993088,253.368088 231.006989,253.289612 232.472534,253.676788 
	C234.581009,252.374176 236.689484,251.071564 239.318466,249.391907 
	C240.615997,247.969604 241.913528,246.547318 243.897614,245.066513 
	C244.937241,242.718185 245.976868,240.369873 247.489975,237.729218 
	C247.844604,237.622116 248.199219,237.514999 249.303314,237.762665 
	C254.890152,235.209686 260.476990,232.656723 266.621277,229.818939 
	C267.635864,229.098465 268.650421,228.378006 270.366180,227.809540 
	C270.786102,227.110733 271.206024,226.411926 271.691101,225.686295 
z"/>
<path fill="#141414" opacity="1.000000" stroke="none" 
	d="
M42.968666,230.048950 
	C41.964382,229.322510 40.960098,228.596085 39.664764,227.409943 
	C38.718517,226.534012 38.063324,226.117813 37.408134,225.701614 
	C37.408131,225.701614 37.336430,225.671997 37.348953,225.331345 
	C36.750134,224.518509 36.138790,224.046326 35.527451,223.574127 
	C35.527454,223.574127 35.403805,223.189758 35.348335,222.694366 
	C34.823231,221.803360 34.353600,221.407715 33.883965,221.012070 
	C33.774353,220.617386 33.664738,220.222702 33.589367,219.163147 
	C33.510242,215.582932 33.396873,212.667572 33.283501,209.752228 
	C33.405621,209.359924 33.527744,208.967621 34.062065,208.208069 
	C34.713860,207.281860 34.953465,206.722916 35.193062,206.163956 
	C36.008640,205.271149 36.824219,204.378326 38.142838,203.274048 
	C39.580280,202.234528 40.514683,201.406479 41.449081,200.578445 
	C41.789261,200.442093 42.129436,200.305740 43.043655,200.176743 
	C44.214512,199.620728 44.811325,199.057327 45.408138,198.493927 
	C45.756680,198.380447 46.105225,198.266953 47.043659,198.125153 
	C48.863979,197.174057 50.094414,196.251282 51.324844,195.328491 
	C51.324844,195.328491 51.644699,195.115723 52.098114,195.040665 
	C53.505379,194.145798 54.459236,193.325989 55.413094,192.506165 
	C56.098537,192.085999 56.783985,191.665817 57.998547,191.077606 
	C59.433006,190.047363 60.338348,189.185135 61.243690,188.322922 
	C61.243690,188.322922 61.250957,188.247208 61.598145,188.301590 
	C62.431847,187.728363 62.918365,187.100739 63.404877,186.473114 
	C64.503906,185.498886 65.602943,184.524643 67.165199,183.232056 
	C68.056946,182.257187 68.485458,181.600662 68.913971,180.944138 
	C69.316307,180.576309 69.718643,180.208481 70.593613,179.514328 
	C72.116722,177.525345 73.167198,175.862686 74.217682,174.200043 
	C74.217682,174.200043 74.520004,173.882111 74.890114,173.526428 
	C76.353691,170.780701 77.447159,168.390671 78.540634,166.000641 
	C78.548828,165.483612 78.557022,164.966568 78.395096,163.749115 
	C77.156479,162.356628 76.087982,161.664581 75.019485,160.972534 
	C75.019485,160.972534 74.713142,160.752029 74.474503,160.351593 
	C69.825806,156.965302 65.415741,153.979431 61.005676,150.993561 
	C61.005676,150.993561 61.000000,151.000000 61.002075,150.648804 
	C53.108044,142.156616 52.430454,132.904221 56.782394,122.877441 
	C57.416454,122.086662 58.050514,121.295883 59.150322,120.219452 
	C60.075958,119.288162 60.535851,118.642532 60.995743,117.996902 
	C61.268761,117.833893 61.543335,117.673546 62.374672,117.391373 
	C64.949089,116.135658 66.968315,115.004448 68.987534,113.873238 
	C70.317924,113.758629 71.648323,113.644020 73.783768,113.665695 
	C75.466766,113.678413 76.344719,113.554855 77.222664,113.431297 
	C78.697395,113.550842 80.172127,113.670387 82.837364,113.886444 
	C82.837364,108.372086 82.837364,103.148849 83.150787,97.219330 
	C83.777351,93.598259 84.090492,90.683464 84.403641,87.768669 
	C84.534050,86.761101 84.664459,85.753532 85.187820,84.240532 
	C85.847870,82.410645 86.114975,81.086189 86.382080,79.761734 
	C86.487892,79.369942 86.593704,78.978157 87.068451,78.126190 
	C89.665390,73.142776 91.893410,68.619553 94.121429,64.096329 
	C94.742279,63.330158 95.363136,62.563988 96.435249,61.424118 
	C98.025063,59.500206 99.163620,57.949989 100.302177,56.399776 
	C100.302177,56.399776 100.320930,56.326851 100.658722,56.290436 
	C101.419632,55.615410 101.842766,54.976803 102.265900,54.338196 
	C102.265900,54.338196 102.264023,54.271259 102.599197,54.272343 
	C103.394646,53.665569 103.854912,53.057713 104.315178,52.449852 
	C104.315178,52.449852 104.357864,52.370388 104.729080,52.349144 
	C106.517250,51.015137 107.934212,49.702377 109.351173,48.389618 
	C110.163857,47.811970 110.976532,47.234318 112.400986,46.513847 
	C117.341843,43.914051 121.670921,41.457073 126.000000,39.000092 
	C126.405838,38.927162 126.811684,38.854229 127.833832,38.814289 
	C129.632751,38.223900 130.815384,37.600513 131.998001,36.977131 
	C132.412216,36.932907 132.826447,36.888683 133.902573,36.922211 
	C136.375626,36.325420 138.186768,35.650875 139.997910,34.976326 
	C141.029526,34.929073 142.061127,34.881824 143.927917,34.946182 
	C151.555771,34.945652 158.348419,34.833511 165.141083,34.721375 
	C166.169861,34.798000 167.198639,34.874630 168.838318,35.251694 
	C171.349777,35.934307 173.250351,36.316483 175.150925,36.698654 
	C175.559830,36.777252 175.968750,36.855846 176.877380,37.244606 
	C178.649750,37.896931 179.922363,38.239094 181.194992,38.581257 
	C181.592224,38.691765 181.989456,38.802273 182.830795,39.277565 
	C187.909897,41.976189 192.544876,44.310032 197.179871,46.643871 
	C197.815857,47.140903 198.451843,47.637939 199.479935,48.590508 
	C201.421432,50.142296 202.970810,51.238544 204.520203,52.334797 
	C204.520203,52.334797 204.606003,52.390354 204.656433,52.735382 
	C205.350876,53.479748 205.994904,53.879086 206.638916,54.278427 
	C206.638916,54.278423 206.703339,54.292900 206.716278,54.629475 
	C207.358337,55.404972 207.987488,55.843899 208.616623,56.282825 
	C208.616623,56.282825 208.682800,56.311684 208.699554,56.679764 
	C210.054306,58.453506 211.392303,59.859173 212.730301,61.264843 
	C213.347809,62.035061 213.965317,62.805271 214.705811,64.202194 
	C217.277634,69.212959 219.726456,73.597000 222.175278,77.981049 
	C222.251740,78.381195 222.328201,78.781349 222.342773,79.818115 
	C222.930695,81.962143 223.580521,83.469551 224.230362,84.976959 
	C224.293777,85.678513 224.357193,86.380074 224.331299,87.821487 
	C224.884094,91.368843 225.526230,94.176338 226.168365,96.983826 
	C226.168365,102.397057 226.168365,107.810287 226.168365,113.720665 
	C230.651550,113.720665 234.389236,113.720665 238.764465,114.042587 
	C241.621063,115.212631 243.840088,116.060760 246.059128,116.908882 
	C246.531281,117.192787 247.003418,117.476692 247.720001,118.219009 
	C248.638351,119.123352 249.312302,119.569283 249.986237,120.015221 
	C249.986237,120.015221 250.000000,120.000000 249.987686,120.349365 
	C251.210159,122.234238 252.444946,123.769737 253.679749,125.305229 
	C253.767639,125.668839 253.855545,126.032448 253.914261,127.073647 
	C255.857544,133.209091 255.198746,138.542969 252.727280,143.610764 
	C251.454971,146.219696 249.584564,148.536926 247.984436,150.985962 
	C247.984421,150.985962 248.000000,151.000000 247.644318,150.979767 
	C244.639023,152.889709 241.946487,154.764206 239.351181,156.764862 
	C236.424377,159.021072 233.585098,161.390793 230.707733,163.711151 
	C230.592422,164.216263 230.477112,164.721390 230.236786,165.883148 
	C231.507065,168.845764 232.902359,171.151718 234.297638,173.457672 
	C234.297638,173.457672 234.437408,173.898117 234.576782,174.418762 
	C235.964111,176.436569 237.212067,177.933731 238.460007,179.430878 
	C240.132492,181.153397 241.804993,182.875931 243.731552,185.124542 
	C244.672928,186.078552 245.360229,186.506470 246.047546,186.934387 
	C246.415100,187.332550 246.782669,187.730698 247.460785,188.574005 
	C248.867416,189.650894 249.963501,190.282639 251.059570,190.914398 
	C252.412842,191.959427 253.766129,193.004440 255.511688,194.466553 
	C256.631256,195.208328 257.358521,195.533005 258.085785,195.857681 
	C258.418640,196.005157 258.751526,196.152634 259.453857,196.693039 
	C261.894073,198.038513 263.964813,198.991058 266.035583,199.943619 
	C266.370392,200.080109 266.705170,200.216583 267.351288,200.777985 
	C268.779510,201.795975 269.896393,202.389038 271.013306,202.982086 
	C271.830566,203.874619 272.647797,204.767151 273.571350,206.248383 
	C274.164429,207.219833 274.651215,207.602600 275.138031,207.985367 
	C275.262695,208.377884 275.387360,208.770416 275.451172,209.825134 
	C275.478882,213.406769 275.567474,216.326202 275.656067,219.245651 
	C275.529388,219.635864 275.402710,220.026077 274.873871,220.780243 
	C274.246613,221.705002 274.021515,222.265823 273.796448,222.826630 
	C273.796448,222.826630 273.583130,223.169907 273.224304,223.424530 
	C272.478302,224.325104 272.091125,224.971039 271.703949,225.616974 
	C271.703949,225.616974 271.691101,225.686295 271.348572,225.716431 
	C270.559021,226.383545 270.112000,227.020538 269.665009,227.657532 
	C268.650421,228.378006 267.635864,229.098465 265.975098,229.908508 
	C259.737213,232.468002 254.145523,234.937943 248.553848,237.407883 
	C248.199219,237.514999 247.844604,237.622116 246.901184,237.904709 
	C245.278625,240.428482 244.244843,242.776764 243.211060,245.125031 
	C241.913528,246.547318 240.615997,247.969604 238.695251,249.570114 
	C236.054993,250.902588 234.037933,252.056839 232.020889,253.211121 
	C231.006989,253.289612 229.993088,253.368088 228.151321,253.330383 
	C221.888184,253.870880 216.452927,254.527573 211.017654,255.184265 
	C210.006866,255.270157 208.996063,255.356049 207.282944,255.357620 
	C205.389923,255.875519 204.199234,256.477753 203.008530,257.079956 
	C202.609741,257.167877 202.210968,257.255829 201.229156,257.318695 
	C199.625397,258.017700 198.604675,258.741791 197.583954,259.465851 
	C197.583954,259.465851 197.188553,259.579620 196.721741,259.629944 
	C195.680161,260.222198 195.105423,260.764160 194.530670,261.306091 
	C193.608536,261.888275 192.686401,262.470459 191.167847,263.090393 
	C189.567795,263.877106 188.564148,264.626068 187.560501,265.375031 
	C187.560501,265.375031 187.129028,265.480774 186.595306,265.562195 
	C184.371338,266.731110 182.681091,267.818604 180.990845,268.906097 
	C180.583755,268.994324 180.176666,269.082520 179.146103,269.124695 
	C177.349258,269.728516 176.175888,270.378296 175.002518,271.028076 
	C174.592545,271.083008 174.182571,271.137939 173.118988,271.131348 
	C170.645111,271.731476 168.824875,272.393097 167.004623,273.054749 
	C166.286148,273.090393 165.567688,273.126038 164.041290,273.051422 
	C157.438004,273.063141 151.642624,273.185089 145.847244,273.307037 
	C144.821472,273.224915 143.795715,273.142792 142.133942,272.796844 
	C139.611252,272.131775 137.724579,271.730530 135.837891,271.329285 
	C135.431961,271.242798 135.026031,271.156311 134.130615,270.745728 
	C132.371658,270.062561 131.102188,269.703461 129.832718,269.344360 
	C129.428833,269.240234 129.024963,269.136108 128.217133,268.636658 
	C125.955338,267.407104 124.097504,266.572968 122.239670,265.738800 
	C122.239670,265.738800 121.881096,265.484894 121.490616,265.164551 
	C120.011368,264.338135 118.922585,263.832001 117.833809,263.325867 
	C116.924072,262.727783 116.014336,262.129669 114.677704,261.139008 
	C113.551659,260.436920 112.852493,260.127411 112.153336,259.817871 
	C112.153336,259.817871 111.826401,259.570129 111.453598,259.239044 
	C109.975548,258.458984 108.870308,258.009979 107.765068,257.561005 
	C107.375732,257.436768 106.986389,257.312531 106.152939,256.791626 
	C104.068283,256.101959 102.427742,255.808914 100.787201,255.515900 
	C100.088188,255.424179 99.389183,255.332474 98.105515,254.900635 
	C91.936554,254.240997 86.352242,253.921509 80.767929,253.602020 
	C79.759979,253.489105 78.752029,253.376205 77.202866,252.912704 
	C74.505074,251.635941 72.348488,250.709763 70.191895,249.783600 
	C68.880669,248.376434 67.569443,246.969254 66.046570,244.992950 
	C64.540810,242.304443 63.246689,240.185043 61.952564,238.065659 
	C61.623852,237.908661 61.295139,237.751663 60.596451,237.251373 
	C58.813431,236.536331 57.400375,236.164597 55.987320,235.792847 
	C55.648884,235.699036 55.310448,235.605225 54.579948,235.151642 
	C51.776413,233.885849 49.364937,232.979782 46.953461,232.073730 
	C46.612453,231.941376 46.271446,231.809021 45.572121,231.297714 
	C44.465424,230.628815 43.717045,230.338882 42.968666,230.048950 
M254.363968,209.085953 
	C238.037369,199.913055 224.485199,187.955231 217.558655,170.090973 
	C213.703674,160.148636 213.126038,158.782272 222.527664,152.251251 
	C223.207779,151.778793 223.943909,151.386963 224.623871,150.914307 
	C229.376907,147.610321 234.275284,144.489700 238.816635,140.915833 
	C241.934341,138.462341 243.120148,134.870758 241.314957,131.078995 
	C239.541489,127.353790 235.995865,126.552872 232.367752,127.380249 
	C227.554916,128.477783 222.877197,130.155716 218.113861,131.485550 
	C212.785675,132.973068 212.364746,132.597717 212.387955,127.173691 
	C212.428574,117.681259 213.074539,108.132095 212.242508,98.714882 
	C211.627563,91.754517 210.152313,84.452507 207.186981,78.189713 
	C194.312378,50.998600 162.352341,42.653378 136.633804,49.826141 
	C112.410957,56.581764 95.205940,76.509315 96.452850,105.532372 
	C96.774368,113.015869 96.461563,120.525291 96.711250,128.013763 
	C96.836838,131.780457 95.517570,132.953857 91.994705,131.745132 
	C90.591698,131.263748 89.195648,130.749329 87.766701,130.358688 
	C83.790359,129.271683 79.844360,127.978981 75.798241,127.271637 
	C72.515442,126.697746 69.456673,127.660072 67.799355,130.994095 
	C66.091881,134.429016 66.995438,137.568024 69.460556,140.157822 
	C71.154823,141.937759 73.216789,143.404617 75.248108,144.819443 
	C80.141174,148.227524 85.167809,151.445129 90.034088,154.889969 
	C93.486671,157.334091 95.314156,160.565994 93.157532,164.778992 
	C89.346077,172.224716 86.180420,180.167618 81.324005,186.873779 
	C73.523376,197.645569 62.774483,205.275223 50.815231,211.154800 
	C49.329052,211.885452 47.152756,213.673416 47.296185,214.688980 
	C47.519154,216.267731 49.178551,218.202393 50.725410,218.927734 
	C54.900307,220.885345 59.341759,222.272156 63.668930,223.907974 
	C68.747993,225.828018 75.465355,225.854721 76.136986,233.291595 
	C76.598656,238.403549 79.490120,240.060699 83.981697,240.324310 
	C85.641609,240.421753 87.296013,240.728195 88.953529,240.733047 
	C101.720261,240.770493 113.343445,244.163910 124.175468,251.167236 
	C129.506348,254.613861 135.620789,257.351654 141.760849,258.946136 
	C157.982483,263.158691 172.917801,259.228058 186.748260,250.151123 
	C195.218216,244.592300 204.465149,241.294769 214.736786,241.104233 
	C218.551865,241.033463 222.355652,240.446564 226.168732,240.148209 
	C229.960846,239.851486 232.218155,238.293350 232.643768,234.096893 
	C233.121964,229.381912 235.787735,226.472610 240.736420,225.334900 
	C245.554718,224.227173 250.334061,222.631866 254.840332,220.605377 
	C257.507294,219.405975 259.612000,216.956238 261.969543,215.068741 
	C259.638062,213.212341 257.306610,211.355942 254.363968,209.085953 
z"/>
<path fill="#A4A4A4" opacity="1.000000" stroke="none" 
	d="
M56.429726,122.911308 
	C52.430454,132.904221 53.108044,142.156616 61.005325,150.645996 
	C54.582016,147.684326 50.682640,137.610382 52.939072,129.492355 
	C53.577190,127.196594 55.009167,125.121483 56.429726,122.911308 
z"/>
<path fill="#A4A4A4" opacity="1.000000" stroke="none" 
	d="
M248.334991,151.024384 
	C249.584564,148.536926 251.454971,146.219696 252.727280,143.610764 
	C255.198746,138.542969 255.857544,133.209091 254.004181,127.339584 
	C254.960754,128.897308 256.399658,130.828445 256.527710,132.842941 
	C256.991638,140.139832 254.622498,146.420898 248.334991,151.024384 
z"/>
<path fill="#A4A4A4" opacity="1.000000" stroke="none" 
	d="
M211.332367,255.440231 
	C216.452927,254.527573 221.888184,253.870880 227.773804,253.383728 
	C222.698441,254.267563 217.172760,254.981888 211.332367,255.440231 
z"/>
<path fill="#A4A4A4" opacity="1.000000" stroke="none" 
	d="
M80.956947,253.899933 
	C86.352242,253.921509 91.936554,254.240997 97.753922,254.873016 
	C92.373314,254.856308 86.759636,254.527084 80.956947,253.899933 
z"/>
<path fill="#A4A4A4" opacity="1.000000" stroke="none" 
	d="
M164.991943,34.365723 
	C158.348419,34.833511 151.555771,34.945652 144.310989,34.889587 
	C146.119537,34.157307 148.380753,33.124020 150.640762,33.126644 
	C155.375107,33.132145 160.108810,33.683102 164.991943,34.365723 
z"/>
<path fill="#A4A4A4" opacity="1.000000" stroke="none" 
	d="
M231.065033,163.739822 
	C233.585098,161.390793 236.424377,159.021072 239.351181,156.764862 
	C241.946487,154.764206 244.639023,152.889709 247.637451,150.971924 
	C246.144638,152.880295 244.511154,155.057465 242.414658,156.609039 
	C238.906082,159.205673 235.102020,161.403076 231.065033,163.739822 
z"/>
<path fill="#A4A4A4" opacity="1.000000" stroke="none" 
	d="
M145.993164,273.666809 
	C151.642624,273.185089 157.438004,273.063141 163.685776,273.106384 
	C158.138474,273.523254 152.138794,273.774933 145.993164,273.666809 
z"/>
<path fill="#A4A4A4" opacity="1.000000" stroke="none" 
	d="
M248.928589,237.585266 
	C254.145523,234.937943 259.737213,232.468002 265.696350,230.050903 
	C260.476990,232.656723 254.890152,235.209686 248.928589,237.585266 
z"/>
<path fill="#A4A4A4" opacity="1.000000" stroke="none" 
	d="
M60.976055,151.341888 
	C65.415741,153.979431 69.825806,156.965302 74.295517,160.291779 
	C69.885590,157.651657 65.416008,154.670929 60.976055,151.341888 
z"/>
<path fill="#A4A4A4" opacity="1.000000" stroke="none" 
	d="
M197.134644,46.310780 
	C192.544876,44.310032 187.909897,41.976189 183.137451,39.321224 
	C187.696472,41.325962 192.392944,43.651821 197.134644,46.310780 
z"/>
<path fill="#A4A4A4" opacity="1.000000" stroke="none" 
	d="
M222.412994,77.760040 
	C219.726456,73.597000 217.277634,69.212959 214.848785,64.465668 
	C217.462753,68.581291 220.056732,73.060158 222.412994,77.760040 
z"/>
<path fill="#A4A4A4" opacity="1.000000" stroke="none" 
	d="
M125.801193,38.760101 
	C121.670921,41.457073 117.341843,43.914051 112.649689,46.343956 
	C116.725197,43.717957 121.163788,41.119034 125.801193,38.760101 
z"/>
<path fill="#A4A4A4" opacity="1.000000" stroke="none" 
	d="
M93.776619,64.136162 
	C91.893410,68.619553 89.665390,73.142776 87.112366,77.824631 
	C89.002174,73.380844 91.216988,68.778419 93.776619,64.136162 
z"/>
<path fill="#A4A4A4" opacity="1.000000" stroke="none" 
	d="
M275.954285,219.084167 
	C275.567474,216.326202 275.478882,213.406769 275.549744,210.117874 
	C278.948334,212.625427 278.375458,215.728165 275.954285,219.084167 
z"/>
<path fill="#A4A4A4" opacity="1.000000" stroke="none" 
	d="
M32.986977,209.916290 
	C33.396873,212.667572 33.510242,215.582932 33.482895,218.874969 
	C29.951733,216.420074 30.653690,213.297638 32.986977,209.916290 
z"/>
<path fill="#A4A4A4" opacity="1.000000" stroke="none" 
	d="
M84.107895,87.936577 
	C84.090492,90.683464 83.777351,93.598259 83.165375,96.751801 
	C83.181740,94.028526 83.496941,91.066505 84.107895,87.936577 
z"/>
<path fill="#A4A4A4" opacity="1.000000" stroke="none" 
	d="
M226.425690,96.712860 
	C225.526230,94.176338 224.884094,91.368843 224.403488,88.166306 
	C225.270996,90.661469 225.977005,93.551682 226.425690,96.712860 
z"/>
<path fill="#A4A4A4" opacity="1.000000" stroke="none" 
	d="
M78.194168,166.132339 
	C77.447159,168.390671 76.353691,170.780701 74.970184,173.322189 
	C75.736000,171.070450 76.791855,168.667236 78.194168,166.132339 
z"/>
<path fill="#A4A4A4" opacity="1.000000" stroke="none" 
	d="
M234.453400,173.112579 
	C232.902359,171.151718 231.507065,168.845764 230.274567,166.273544 
	C231.827942,168.260681 233.218567,170.514069 234.453400,173.112579 
z"/>
<path fill="#A4A4A4" opacity="1.000000" stroke="none" 
	d="
M68.775635,113.625755 
	C66.968315,115.004448 64.949089,116.135658 62.567596,117.251114 
	C64.324799,115.949669 66.444267,114.663971 68.775635,113.625755 
z"/>
<path fill="#A4A4A4" opacity="1.000000" stroke="none" 
	d="
M139.769104,34.738583 
	C138.186768,35.650875 136.375626,36.325420 134.206604,36.849335 
	C135.745926,35.966084 137.643112,35.233463 139.769104,34.738583 
z"/>
<path fill="#A4A4A4" opacity="1.000000" stroke="none" 
	d="
M47.002785,232.428406 
	C49.364937,232.979782 51.776413,233.885849 54.319210,235.112793 
	C51.984394,234.550156 49.518253,233.666626 47.002785,232.428406 
z"/>
<path fill="#A4A4A4" opacity="1.000000" stroke="none" 
	d="
M175.062576,36.378662 
	C173.250351,36.316483 171.349777,35.934307 169.225342,35.264175 
	C170.992401,35.337036 172.983307,35.697853 175.062576,36.378662 
z"/>
<path fill="#A4A4A4" opacity="1.000000" stroke="none" 
	d="
M243.554352,245.095764 
	C244.244843,242.776764 245.278625,240.428482 246.664459,238.050873 
	C245.976868,240.369873 244.937241,242.718185 243.554352,245.095764 
z"/>
<path fill="#A4A4A4" opacity="1.000000" stroke="none" 
	d="
M70.203812,250.128143 
	C72.348488,250.709763 74.505074,251.635941 76.823639,252.876907 
	C74.728981,252.285355 72.472359,251.379028 70.203812,250.128143 
z"/>
<path fill="#A4A4A4" opacity="1.000000" stroke="none" 
	d="
M232.246704,253.443939 
	C234.037933,252.056839 236.054993,250.902588 238.434998,249.758636 
	C236.689484,251.071564 234.581009,252.374176 232.246704,253.443939 
z"/>
<path fill="#A4A4A4" opacity="1.000000" stroke="none" 
	d="
M246.048035,116.560707 
	C243.840088,116.060760 241.621063,115.212631 239.209167,114.068649 
	C241.356537,114.586029 243.696732,115.399277 246.048035,116.560707 
z"/>
<path fill="#A4A4A4" opacity="1.000000" stroke="none" 
	d="
M135.920349,271.652771 
	C137.724579,271.730530 139.611252,272.131775 141.747467,272.794250 
	C139.998932,272.695770 138.000854,272.336029 135.920349,271.652771 
z"/>
<path fill="#A4A4A4" opacity="1.000000" stroke="none" 
	d="
M61.927551,238.430939 
	C63.246689,240.185043 64.540810,242.304443 65.797958,244.781586 
	C64.474838,243.024963 63.188690,240.910599 61.927551,238.430939 
z"/>
<path fill="#A4A4A4" opacity="1.000000" stroke="none" 
	d="
M167.235107,273.292480 
	C168.824875,272.393097 170.645111,271.731476 172.820221,271.215637 
	C171.271912,272.084351 169.368759,272.807251 167.235107,273.292480 
z"/>
<path fill="#A4A4A4" opacity="1.000000" stroke="none" 
	d="
M224.461945,84.759476 
	C223.580521,83.469551 222.930695,81.962143 222.432541,80.110306 
	C223.287323,81.357910 223.990433,82.949951 224.461945,84.759476 
z"/>
<path fill="#A4A4A4" opacity="1.000000" stroke="none" 
	d="
M265.980713,199.599487 
	C263.964813,198.991058 261.894073,198.038513 259.720459,196.756653 
	C261.720337,197.370010 263.823059,198.312683 265.980713,199.599487 
z"/>
<path fill="#A4A4A4" opacity="1.000000" stroke="none" 
	d="
M100.922073,255.796021 
	C102.427742,255.808914 104.068283,256.101959 105.850800,256.737701 
	C104.347496,256.745667 102.702225,256.410919 100.922073,255.796021 
z"/>
<path fill="#A4A4A4" opacity="1.000000" stroke="none" 
	d="
M122.210526,266.078064 
	C124.097504,266.572968 125.955338,267.407104 127.910583,268.573425 
	C126.065788,268.076202 124.123581,267.246765 122.210526,266.078064 
z"/>
<path fill="#A4A4A4" opacity="1.000000" stroke="none" 
	d="
M181.171478,269.151062 
	C182.681091,267.818604 184.371338,266.731110 186.413467,265.689758 
	C184.960938,266.955963 183.156509,268.176025 181.171478,269.151062 
z"/>
<path fill="#A4A4A4" opacity="1.000000" stroke="none" 
	d="
M73.865082,174.184204 
	C73.167198,175.862686 72.116722,177.525345 70.752365,179.292603 
	C71.463150,177.654266 72.487816,175.911331 73.865082,174.184204 
z"/>
<path fill="#A4A4A4" opacity="1.000000" stroke="none" 
	d="
M108.997498,48.277363 
	C107.934212,49.702377 106.517250,51.015137 104.768906,52.327976 
	C105.839615,50.940403 107.241714,49.552753 108.997498,48.277363 
z"/>
<path fill="#A4A4A4" opacity="1.000000" stroke="none" 
	d="
M212.823273,60.908806 
	C211.392303,59.859173 210.054306,58.453506 208.707886,56.714890 
	C210.105072,57.772217 211.510666,59.162495 212.823273,60.908806 
z"/>
<path fill="#A4A4A4" opacity="1.000000" stroke="none" 
	d="
M253.799026,124.954727 
	C252.444946,123.769737 251.210159,122.234238 249.980057,120.355972 
	C251.295929,121.543541 252.607117,123.073891 253.799026,124.954727 
z"/>
<path fill="#A4A4A4" opacity="1.000000" stroke="none" 
	d="
M204.611511,51.991898 
	C202.970810,51.238544 201.421432,50.142296 199.736404,48.753868 
	C201.301453,49.524132 203.002151,50.586567 204.611511,51.991898 
z"/>
<path fill="#A4A4A4" opacity="1.000000" stroke="none" 
	d="
M99.956787,56.343300 
	C99.163620,57.949989 98.025063,59.500206 96.578392,61.160454 
	C97.383987,59.609261 98.497696,57.948040 99.956787,56.343300 
z"/>
<path fill="#A4A4A4" opacity="1.000000" stroke="none" 
	d="
M238.603973,179.087982 
	C237.212067,177.933731 235.964111,176.436569 234.719452,174.600525 
	C236.064453,175.756119 237.406204,177.250610 238.603973,179.087982 
z"/>
<path fill="#A4A4A4" opacity="1.000000" stroke="none" 
	d="
M203.182831,257.321075 
	C204.199234,256.477753 205.389923,255.875519 206.909851,255.431732 
	C205.945114,256.247528 204.651138,256.904877 203.182831,257.321075 
z"/>
<path fill="#A4A4A4" opacity="1.000000" stroke="none" 
	d="
M86.100060,79.871262 
	C86.114975,81.086189 85.847870,82.410645 85.245132,83.863380 
	C85.212341,82.654701 85.515190,81.317741 86.100060,79.871262 
z"/>
<path fill="#A4A4A4" opacity="1.000000" stroke="none" 
	d="
M131.807983,36.742508 
	C130.815384,37.600513 129.632751,38.223900 128.126740,38.714478 
	C129.074890,37.890404 130.346420,37.199142 131.807983,36.742508 
z"/>
<path fill="#A4A4A4" opacity="1.000000" stroke="none" 
	d="
M181.146240,38.269554 
	C179.922363,38.239094 178.649750,37.896931 177.189270,37.265892 
	C178.366776,37.303963 179.732132,37.630909 181.146240,38.269554 
z"/>
<path fill="#A4A4A4" opacity="1.000000" stroke="none" 
	d="
M129.894104,269.652008 
	C131.102188,269.703461 132.371658,270.062561 133.820038,270.718933 
	C132.651138,270.664032 131.303314,270.311859 129.894104,269.652008 
z"/>
<path fill="#A4A4A4" opacity="1.000000" stroke="none" 
	d="
M175.191711,271.262268 
	C176.175888,270.378296 177.349258,269.728516 178.847382,269.216187 
	C177.908386,270.067902 176.644638,270.782166 175.191711,271.262268 
z"/>
<path fill="#A4A4A4" opacity="1.000000" stroke="none" 
	d="
M56.180412,236.114075 
	C57.400375,236.164597 58.813431,236.536331 60.326805,237.197083 
	C59.075920,237.135818 57.724712,236.785568 56.180412,236.114075 
z"/>
<path fill="#A4A4A4" opacity="1.000000" stroke="none" 
	d="
M50.972649,195.260986 
	C50.094414,196.251282 48.863979,197.174057 47.295128,198.013824 
	C48.177959,197.018341 49.399208,196.105911 50.972649,195.260986 
z"/>
<path fill="#A4A4A4" opacity="1.000000" stroke="none" 
	d="
M107.846527,257.899475 
	C108.870308,258.009979 109.975548,258.458984 111.256927,259.180847 
	C110.264709,259.048462 109.096352,258.643188 107.846527,257.899475 
z"/>
<path fill="#A4A4A4" opacity="1.000000" stroke="none" 
	d="
M197.906677,259.617920 
	C198.604675,258.741791 199.625397,258.017700 200.942291,257.426727 
	C200.235443,258.296539 199.232422,259.033264 197.906677,259.617920 
z"/>
<path fill="#A4A4A4" opacity="1.000000" stroke="none" 
	d="
M41.115482,200.463226 
	C40.514683,201.406479 39.580280,202.234528 38.316277,203.022308 
	C38.918411,202.104050 39.850147,201.226028 41.115482,200.463226 
z"/>
<path fill="#A4A4A4" opacity="1.000000" stroke="none" 
	d="
M117.895187,263.670166 
	C118.922585,263.832001 120.011368,264.338135 121.277344,265.111877 
	C120.288551,264.924530 119.122559,264.469513 117.895187,263.670166 
z"/>
<path fill="#A4A4A4" opacity="1.000000" stroke="none" 
	d="
M187.870911,265.534607 
	C188.564148,264.626068 189.567795,263.877106 190.873703,263.239807 
	C190.177750,264.132385 189.179535,264.913269 187.870911,265.534607 
z"/>
<path fill="#A4A4A4" opacity="1.000000" stroke="none" 
	d="
M75.040176,161.317780 
	C76.087982,161.664581 77.156479,162.356628 78.259293,163.384277 
	C77.216034,163.034256 76.138451,162.348648 75.040176,161.317780 
z"/>
<path fill="#A4A4A4" opacity="1.000000" stroke="none" 
	d="
M271.011627,202.625778 
	C269.896393,202.389038 268.779510,201.795975 267.604340,200.875458 
	C268.700714,201.121811 269.855316,201.695648 271.011627,202.625778 
z"/>
<path fill="#A4A4A4" opacity="1.000000" stroke="none" 
	d="
M55.086975,192.390320 
	C54.459236,193.325989 53.505379,194.145798 52.223282,194.894974 
	C52.850307,193.974396 53.805580,193.124435 55.086975,192.390320 
z"/>
<path fill="#A4A4A4" opacity="1.000000" stroke="none" 
	d="
M251.032837,190.566040 
	C249.963501,190.282639 248.867416,189.650894 247.712219,188.687561 
	C248.770767,188.976547 249.888443,189.597122 251.032837,190.566040 
z"/>
<path fill="#A4A4A4" opacity="1.000000" stroke="none" 
	d="
M60.918060,188.220520 
	C60.338348,189.185135 59.433006,190.047363 58.201088,190.846558 
	C58.780487,189.895065 59.686462,189.006577 60.918060,188.220520 
z"/>
<path fill="#A4A4A4" opacity="1.000000" stroke="none" 
	d="
M77.114120,113.182137 
	C76.344719,113.554855 75.466766,113.678413 74.179558,113.606995 
	C74.848724,113.252342 75.927147,113.092659 77.114120,113.182137 
z"/>
<path fill="#A4A4A4" opacity="1.000000" stroke="none" 
	d="
M206.699112,53.933594 
	C205.994904,53.879086 205.350876,53.479748 204.684402,52.778168 
	C205.361069,52.846870 206.060181,53.217819 206.699112,53.933594 
z"/>
<path fill="#A4A4A4" opacity="1.000000" stroke="none" 
	d="
M37.340843,226.052246 
	C38.063324,226.117813 38.718517,226.534012 39.388939,227.260254 
	C38.693966,227.181168 37.983757,226.792023 37.340843,226.052246 
z"/>
<path fill="#A4A4A4" opacity="1.000000" stroke="none" 
	d="
M101.920822,54.285637 
	C101.842766,54.976803 101.419632,55.615410 100.691940,56.272717 
	C100.783493,55.605305 101.179619,54.919193 101.920822,54.285637 
z"/>
<path fill="#A4A4A4" opacity="1.000000" stroke="none" 
	d="
M208.692627,55.941189 
	C207.987488,55.843899 207.358337,55.404972 206.723511,54.661674 
	C207.401413,54.771385 208.085022,55.185467 208.692627,55.941189 
z"/>
<path fill="#A4A4A4" opacity="1.000000" stroke="none" 
	d="
M60.661674,117.974113 
	C60.535851,118.642532 60.075958,119.288162 59.294552,119.949036 
	C59.424561,119.293289 59.876083,118.622307 60.661674,117.974113 
z"/>
<path fill="#A4A4A4" opacity="1.000000" stroke="none" 
	d="
M250.010529,119.681595 
	C249.312302,119.569283 248.638351,119.123352 247.960114,118.355522 
	C248.648819,118.471741 249.341827,118.909859 250.010529,119.681595 
z"/>
<path fill="#A4A4A4" opacity="1.000000" stroke="none" 
	d="
M68.592880,180.960236 
	C68.485458,181.600662 68.056946,182.257187 67.306824,182.947220 
	C67.414078,182.312592 67.842934,181.644470 68.592880,180.960236 
z"/>
<path fill="#A4A4A4" opacity="1.000000" stroke="none" 
	d="
M246.045944,186.614273 
	C245.360229,186.506470 244.672928,186.078552 243.991837,185.326019 
	C244.680145,185.432312 245.362244,185.863235 246.045944,186.614273 
z"/>
<path fill="#A4A4A4" opacity="1.000000" stroke="none" 
	d="
M63.068542,186.373474 
	C62.918365,187.100739 62.431847,187.728363 61.633301,188.316101 
	C61.791584,187.608749 62.261894,186.941284 63.068542,186.373474 
z"/>
<path fill="#A4A4A4" opacity="1.000000" stroke="none" 
	d="
M194.852722,261.468506 
	C195.105423,260.764160 195.680161,260.222198 196.556091,259.751953 
	C196.296448,260.426056 195.735611,261.028503 194.852722,261.468506 
z"/>
<path fill="#A4A4A4" opacity="1.000000" stroke="none" 
	d="
M112.164276,260.179626 
	C112.852493,260.127411 113.551659,260.436920 114.367882,261.030518 
	C113.715034,261.056824 112.945129,260.799103 112.164276,260.179626 
z"/>
<path fill="#A4A4A4" opacity="1.000000" stroke="none" 
	d="
M258.054565,195.511841 
	C257.358521,195.533005 256.631256,195.208328 255.817413,194.575287 
	C256.495026,194.566620 257.259186,194.866318 258.054565,195.511841 
z"/>
<path fill="#A4A4A4" opacity="1.000000" stroke="none" 
	d="
M45.085941,198.370605 
	C44.811325,199.057327 44.214512,199.620728 43.300617,200.079132 
	C43.576939,199.398544 44.170341,198.822906 45.085941,198.370605 
z"/>
<path fill="#A4A4A4" opacity="1.000000" stroke="none" 
	d="
M103.976204,52.360580 
	C103.854912,53.057713 103.394646,53.665569 102.632614,54.270248 
	C102.766312,53.601818 103.201775,52.936565 103.976204,52.360580 
z"/>
<path fill="#A4A4A4" opacity="1.000000" stroke="none" 
	d="
M34.907692,206.136703 
	C34.953465,206.722916 34.713860,207.281860 34.150272,207.912689 
	C34.091633,207.359528 34.356976,206.734497 34.907692,206.136703 
z"/>
<path fill="#A4A4A4" opacity="1.000000" stroke="none" 
	d="
M275.359192,207.821396 
	C274.651215,207.602600 274.164429,207.219833 273.731445,206.508087 
	C274.383636,206.671875 274.981995,207.164642 275.359192,207.821396 
z"/>
<path fill="#A4A4A4" opacity="1.000000" stroke="none" 
	d="
M33.657078,221.164001 
	C34.353600,221.407715 34.823231,221.803360 35.239677,222.524231 
	C34.601059,222.338287 34.015625,221.827118 33.657078,221.164001 
z"/>
<path fill="#A4A4A4" opacity="1.000000" stroke="none" 
	d="
M274.079224,222.830292 
	C274.021515,222.265823 274.246613,221.705002 274.792480,221.077194 
	C274.862823,221.618103 274.612396,222.226028 274.079224,222.830292 
z"/>
<path fill="#A4A4A4" opacity="1.000000" stroke="none" 
	d="
M35.422722,223.914627 
	C36.138790,224.046326 36.750134,224.518509 37.336365,225.294647 
	C36.646835,225.150772 35.982414,224.702942 35.422722,223.914627 
z"/>
<path fill="#A4A4A4" opacity="1.000000" stroke="none" 
	d="
M272.056000,225.663727 
	C272.091125,224.971039 272.478302,224.325104 273.164307,223.617523 
	C273.111450,224.274078 272.759766,224.992279 272.056000,225.663727 
z"/>
<path fill="#A4A4A4" opacity="1.000000" stroke="none" 
	d="
M43.026161,230.393188 
	C43.717045,230.338882 44.465424,230.628815 45.304676,231.234558 
	C44.624920,231.279388 43.854290,231.008392 43.026161,230.393188 
z"/>
<path fill="#A4A4A4" opacity="1.000000" stroke="none" 
	d="
M270.015594,227.733536 
	C270.112000,227.020538 270.559021,226.383545 271.315979,225.729828 
	C271.206024,226.411926 270.786102,227.110733 270.015594,227.733536 
z"/>
<path fill="#FCFCFC" opacity="1.000000" stroke="none" 
	d="
M254.669556,209.292755 
	C257.306610,211.355942 259.638062,213.212341 261.969543,215.068741 
	C259.612000,216.956238 257.507294,219.405975 254.840332,220.605377 
	C250.334061,222.631866 245.554718,224.227173 240.736420,225.334900 
	C235.787735,226.472610 233.121964,229.381912 232.643768,234.096893 
	C232.218155,238.293350 229.960846,239.851486 226.168732,240.148209 
	C222.355652,240.446564 218.551865,241.033463 214.736786,241.104233 
	C204.465149,241.294769 195.218216,244.592300 186.748260,250.151123 
	C172.917801,259.228058 157.982483,263.158691 141.760849,258.946136 
	C135.620789,257.351654 129.506348,254.613861 124.175468,251.167236 
	C113.343445,244.163910 101.720261,240.770493 88.953529,240.733047 
	C87.296013,240.728195 85.641609,240.421753 83.981697,240.324310 
	C79.490120,240.060699 76.598656,238.403549 76.136986,233.291595 
	C75.465355,225.854721 68.747993,225.828018 63.668930,223.907974 
	C59.341759,222.272156 54.900307,220.885345 50.725410,218.927734 
	C49.178551,218.202393 47.519154,216.267731 47.296185,214.688980 
	C47.152756,213.673416 49.329052,211.885452 50.815231,211.154800 
	C62.774483,205.275223 73.523376,197.645569 81.324005,186.873779 
	C86.180420,180.167618 89.346077,172.224716 93.157532,164.778992 
	C95.314156,160.565994 93.486671,157.334091 90.034088,154.889969 
	C85.167809,151.445129 80.141174,148.227524 75.248108,144.819443 
	C73.216789,143.404617 71.154823,141.937759 69.460556,140.157822 
	C66.995438,137.568024 66.091881,134.429016 67.799355,130.994095 
	C69.456673,127.660072 72.515442,126.697746 75.798241,127.271637 
	C79.844360,127.978981 83.790359,129.271683 87.766701,130.358688 
	C89.195648,130.749329 90.591698,131.263748 91.994705,131.745132 
	C95.517570,132.953857 96.836838,131.780457 96.711250,128.013763 
	C96.461563,120.525291 96.774368,113.015869 96.452850,105.532372 
	C95.205940,76.509315 112.410957,56.581764 136.633804,49.826141 
	C162.352341,42.653378 194.312378,50.998600 207.186981,78.189713 
	C210.152313,84.452507 211.627563,91.754517 212.242508,98.714882 
	C213.074539,108.132095 212.428574,117.681259 212.387955,127.173691 
	C212.364746,132.597717 212.785675,132.973068 218.113861,131.485550 
	C222.877197,130.155716 227.554916,128.477783 232.367752,127.380249 
	C235.995865,126.552872 239.541489,127.353790 241.314957,131.078995 
	C243.120148,134.870758 241.934341,138.462341 238.816635,140.915833 
	C234.275284,144.489700 229.376907,147.610321 224.623871,150.914307 
	C223.943909,151.386963 223.207779,151.778793 222.527664,152.251251 
	C213.126038,158.782272 213.703674,160.148636 217.558655,170.090973 
	C224.485199,187.955231 238.037369,199.913055 254.669556,209.292755 
z"/>
</svg>